# xmcd
# 
# Track frame offsets:
#     150
#     14055
#     28461
#     44894
#     61827
#     77940
#     91443
#     109265
#     126744
#     146219
#     161077
#     183135
#     203856
#     219098
#     237906
#     255703
# 
# Disc length: 3639
# 
# Revision: 2
# Processed by: cddbd v1.5.2PL0 Copyright (c) Steve Scherf et al.
# Submitted via: BonkEnc v1.0.8
# 
DISCID=f80e3510
DTITLE=Madeline Juno - The Unknown
DYEAR=2014
DGENRE=Pop
TTITLE0=The Unknown
TTITLE1=Like lovers do
TTITLE2=Six cigarettes
TTITLE3=Day one
TTITLE4=Feel you
TTITLE5=Same sky
TTITLE6=Error
TTITLE7=Vertigo
TTITLE8=Melancholy heartbeat
TTITLE9=Second time around
TTITLE10=Sympathy
TTITLE11=Always this way
TTITLE12=Do it again
TTITLE13=If this was a movie
TTITLE14=Ego you
TTITLE15=Another you
EXTD=
EXTT0=
EXTT1=
EXTT2=
EXTT3=
EXTT4=
EXTT5=
EXTT6=
EXTT7=
EXTT8=
EXTT9=
EXTT10=
EXTT11=
EXTT12=
EXTT13=
EXTT14=
EXTT15=
PLAYORDER=
